<?xml version="1.0" encoding="UTF-8"?>
<svg id="_레이어_1" data-name="레이어 1" xmlns="http://www.w3.org/2000/svg" viewBox="0 0 512 512">
  <defs>
    <style>
      .cls-1 {
        fill: #55c0d3;
      }

      .cls-2 {
        fill: #56c1d4;
      }

      .cls-3 {
        fill: #2b2d3a;
      }
    </style>
  </defs>
  <circle class="cls-3" cx="256" cy="256" r="250.87"/>
  <g>
    <path class="cls-2" d="M333.02,332.84c-3.43-3.26-7.15-6.81-10.55-10.03v-.07c-50.03,45.44-134.78,19.89-149.66-46.46-16.72-74.57,60.85-133.4,128.99-101.02,0,0,6.03,2.91,17.9,12.19l10.41-8.41c-5.03-6.48-9.25-8.86-9.25-8.86-18.92-12.92-43.61-19.65-66.46-18.03-48.78,3.47-93.3,42.89-97.61,92.62-8.44,97.42,104,151.24,176.22,88.06"/>
    <path class="cls-1" d="M364.58,362.96c-.2-.25-4.33-4.2-10.32-9.92"/>
    <path class="cls-1" d="M364.58,362.96c-54.32,50.93-139.32,53.76-197.27,6.95-99.8-80.61-51.83-246.69,75.9-259.71,44.86-4.57,89.99,8.5,121.78,40.68l-10.82,8.74-.29-.25c-2.72-2.13-9.89-8.66-12.03-10.16-70.56-49.56-170.76-24.87-203.91,55.74-51.35,124.86,91.12,235.18,202.51,159.15l13.8-11.06"/>
  </g>
  <circle class="cls-1" cx="349.38" cy="256" r="20"/>
</svg>